# xmcd
#
# Track frame offsets:
#	187
#	6990
#	16447
#	25800
#	38030
#	55080
#	67470
#	78800
#	89157
#	105762
#
# Disc length: 1574 seconds
#
# Revision: 3
# Processed by: cddbd v1.5.1PL0 Copyright (c) Steve Scherf et al.
# Submitted via: audiograbber 1.83.01
#
DISCID=7706240a
DTITLE=Various Country Artists - Country Gold - Volume 10
DYEAR=1900
DGENRE=
TTITLE0=Waylon Jennings - It's So Easy
TTITLE1=Patsy Cline - Love Me, Love Me, Honey Do 
TTITLE2=Ernest Tubb And Mel Tillis - Have You Ever Been Lonely (Have You Been B
TTITLE2=lue)
TTITLE3=Johnny Paycheck - She Thinks I Still Care
TTITLE4=Donna Fargo - Battle Hymn Of The Republic
TTITLE5=Johnny Cash - Here Was A Man
TTITLE6=Patsy Cline - Just Out Of Reach
TTITLE7=Waylon Jennings - Lorena
TTITLE8=Donna Fargo - The House Of The Rising Sun
TTITLE9=Johnny Paycheck - Me And The IRS
EXTD=
EXTT0=
EXTT1=
EXTT2=
EXTT3=
EXTT4=
EXTT5=
EXTT6=
EXTT7=
EXTT8=
EXTT9=
PLAYORDER=
